<svg width="269" height="62" viewBox="0 0 269 62" fill="none" xmlns="http://www.w3.org/2000/svg">
<path d="M1.032 23V5.84H6.048V23H1.032ZM12.2141 10.76V12.44H12.2861C13.2941 11.064 14.6061 10.376 16.2221 10.376C17.6141 10.376 18.6781 10.8 19.4141 11.648C20.1501 12.496 20.5181 13.64 20.5181 15.08V23H15.9821V16.184C15.9821 14.776 15.4141 14.072 14.2781 14.072C13.7181 14.072 13.2701 14.296 12.9341 14.744C12.5981 15.176 12.4301 15.728 12.4301 16.4V23H7.89413V10.76H12.2141ZM21.168 13.496V10.76H22.752V6.8H27.192V10.76H29.52V13.496H27.192V18.464C27.192 18.848 27.28 19.136 27.456 19.328C27.648 19.52 27.912 19.624 28.248 19.64C28.584 19.656 28.992 19.648 29.472 19.616V22.952C28.672 23.144 27.928 23.24 27.24 23.24C25.688 23.24 24.552 22.968 23.832 22.424C23.112 21.864 22.752 20.88 22.752 19.472V13.496H21.168ZM36.8908 23.336C34.9068 23.336 33.2908 22.728 32.0428 21.512C30.8108 20.296 30.1948 18.744 30.1948 16.856C30.1948 14.984 30.8028 13.432 32.0188 12.2C33.2348 10.968 34.8028 10.352 36.7228 10.352C38.5308 10.352 40.0348 10.904 41.2348 12.008C42.7068 13.368 43.4188 15.36 43.3708 17.984H34.6348C34.9228 19.504 35.7228 20.264 37.0348 20.264C37.8348 20.264 38.4028 19.96 38.7388 19.352H43.1308C42.8588 20.504 42.0828 21.488 40.8028 22.304C39.7308 22.992 38.4268 23.336 36.8908 23.336ZM36.8188 13.4C35.6188 13.4 34.8908 14.128 34.6348 15.584H38.8588C38.7628 14.896 38.5308 14.36 38.1628 13.976C37.8108 13.592 37.3628 13.4 36.8188 13.4ZM44.5035 23V5.84H49.1595V23H44.5035ZM50.7848 23V5.84H55.4408V23H50.7848ZM57.066 23V10.76H61.602V23H57.066ZM57.066 9.272V5.84H61.602V9.272H57.066ZM69.2301 27.272C67.4701 27.272 66.0381 26.928 64.9341 26.24C63.8301 25.552 63.1741 24.544 62.9661 23.216H67.3341C67.4301 23.504 67.6301 23.744 67.9341 23.936C68.2541 24.144 68.6621 24.248 69.1581 24.248C70.4701 24.248 71.1261 23.536 71.1261 22.112V21.008H71.0301C70.2141 21.936 69.1821 22.4 67.9341 22.4C66.4621 22.4 65.2221 21.896 64.2141 20.888C63.2221 19.88 62.7261 18.456 62.7261 16.616C62.7261 14.84 63.1901 13.36 64.1181 12.176C65.0461 10.976 66.2461 10.376 67.7181 10.376C69.2861 10.376 70.4461 10.952 71.1981 12.104H71.2701V10.76H75.5901V21.536C75.5901 23.456 74.9901 24.92 73.7901 25.928C72.7341 26.824 71.2141 27.272 69.2301 27.272ZM69.2301 19.232C69.8701 19.232 70.3741 18.976 70.7421 18.464C71.1261 17.936 71.3181 17.256 71.3181 16.424C71.3181 15.624 71.1261 14.968 70.7421 14.456C70.3741 13.928 69.8701 13.664 69.2301 13.664C68.5901 13.664 68.0781 13.92 67.6941 14.432C67.3261 14.928 67.1421 15.592 67.1421 16.424C67.1421 17.256 67.3341 17.936 67.7181 18.464C68.1021 18.976 68.6061 19.232 69.2301 19.232ZM83.4143 23.336C81.4303 23.336 79.8143 22.728 78.5663 21.512C77.3343 20.296 76.7183 18.744 76.7183 16.856C76.7183 14.984 77.3263 13.432 78.5423 12.2C79.7583 10.968 81.3263 10.352 83.2463 10.352C85.0543 10.352 86.5583 10.904 87.7583 12.008C89.2303 13.368 89.9423 15.36 89.8943 17.984H81.1583C81.4463 19.504 82.2463 20.264 83.5583 20.264C84.3583 20.264 84.9263 19.96 85.2623 19.352H89.6543C89.3823 20.504 88.6063 21.488 87.3263 22.304C86.2543 22.992 84.9503 23.336 83.4143 23.336ZM83.3423 13.4C82.1423 13.4 81.4143 14.128 81.1583 15.584H85.3823C85.2863 14.896 85.0543 14.36 84.6863 13.976C84.3343 13.592 83.8863 13.4 83.3423 13.4ZM95.3469 10.76V12.44H95.4189C96.4269 11.064 97.7389 10.376 99.3549 10.376C100.747 10.376 101.811 10.8 102.547 11.648C103.283 12.496 103.651 13.64 103.651 15.08V23H99.1149V16.184C99.1149 14.776 98.5469 14.072 97.4109 14.072C96.8509 14.072 96.4029 14.296 96.0669 14.744C95.7309 15.176 95.5629 15.728 95.5629 16.4V23H91.0269V10.76H95.3469ZM104.301 13.496V10.76H105.885V6.8H110.325V10.76H112.653V13.496H110.325V18.464C110.325 18.848 110.413 19.136 110.589 19.328C110.781 19.52 111.045 19.624 111.381 19.64C111.717 19.656 112.125 19.648 112.605 19.616V22.952C111.805 23.144 111.061 23.24 110.373 23.24C108.821 23.24 107.685 22.968 106.965 22.424C106.245 21.864 105.885 20.88 105.885 19.472V13.496H104.301ZM15.384 51.912C13.784 53.576 11.672 54.408 9.048 54.408C6.424 54.408 4.32 53.576 2.736 51.912C1.152 50.232 0.36 48.088 0.36 45.48C0.36 42.872 1.152 40.728 2.736 39.048C4.32 37.368 6.424 36.528 9.048 36.528C11.672 36.528 13.784 37.368 15.384 39.048C16.984 40.728 17.784 42.872 17.784 45.48C17.784 48.088 16.984 50.232 15.384 51.912ZM6.384 49.032C7.008 49.944 7.904 50.4 9.072 50.4C10.24 50.4 11.136 49.944 11.76 49.032C12.384 48.12 12.696 46.936 12.696 45.48C12.696 44.024 12.384 42.84 11.76 41.928C11.136 41 10.24 40.536 9.072 40.536C7.904 40.536 7.008 41 6.384 41.928C5.76 42.84 5.448 44.024 5.448 45.48C5.448 46.936 5.76 48.12 6.384 49.032ZM23.2766 41.76V43.608H23.3486C24.2446 42.2 25.4846 41.496 27.0686 41.496C27.4046 41.496 27.6526 41.536 27.8126 41.616V45.48H27.7166C26.3726 45.256 25.3326 45.44 24.5966 46.032C23.8606 46.624 23.4926 47.608 23.4926 48.984V54H18.9566V41.76H23.2766ZM36.3398 54C36.1478 53.68 36.0118 53.232 35.9318 52.656H35.8838C35.0838 53.76 33.8518 54.312 32.1878 54.312C30.9718 54.312 29.9878 53.992 29.2358 53.352C28.4838 52.712 28.1078 51.808 28.1078 50.64C28.1078 49.392 28.5078 48.496 29.3078 47.952C30.1078 47.392 31.1878 47.032 32.5478 46.872C33.8278 46.728 34.6918 46.56 35.1398 46.368C35.6038 46.176 35.8358 45.888 35.8358 45.504C35.8358 44.72 35.4038 44.328 34.5398 44.328C33.5958 44.328 33.0598 44.816 32.9318 45.792H28.6357C28.6838 44.512 29.2038 43.456 30.1958 42.624C31.1878 41.792 32.6038 41.376 34.4438 41.376C36.2358 41.376 37.5718 41.648 38.4518 42.192C39.7158 42.976 40.3478 44.2 40.3478 45.864V51.984C40.3478 53.008 40.4998 53.616 40.8038 53.808V54H36.3398ZM33.8918 51.624C34.4678 51.624 34.9558 51.456 35.3558 51.12C35.7558 50.768 35.9558 50.248 35.9558 49.56V48.48C35.4918 48.704 34.9078 48.896 34.2038 49.056C33.5638 49.2 33.1158 49.376 32.8598 49.584C32.6038 49.792 32.4758 50.08 32.4758 50.448C32.4758 50.832 32.6118 51.128 32.8838 51.336C33.1558 51.528 33.4918 51.624 33.8918 51.624ZM48.282 54.384C46.282 54.384 44.658 53.776 43.41 52.56C42.178 51.344 41.562 49.792 41.562 47.904C41.562 46.016 42.178 44.464 43.41 43.248C44.658 42.016 46.282 41.4 48.282 41.4C49.978 41.4 51.37 41.856 52.458 42.768C53.562 43.664 54.194 44.84 54.354 46.296H49.986C49.73 45.144 49.146 44.568 48.234 44.568C46.858 44.568 46.17 45.68 46.17 47.904C46.17 48.944 46.346 49.752 46.698 50.328C47.066 50.904 47.594 51.192 48.282 51.192C49.338 51.192 49.93 50.48 50.058 49.056H54.426C54.426 50.592 53.85 51.864 52.698 52.872C51.562 53.88 50.09 54.384 48.282 54.384ZM55.4723 54V36.84H60.1283V54H55.4723ZM67.9455 54.336C65.9615 54.336 64.3455 53.728 63.0975 52.512C61.8655 51.296 61.2495 49.744 61.2495 47.856C61.2495 45.984 61.8575 44.432 63.0735 43.2C64.2895 41.968 65.8575 41.352 67.7775 41.352C69.5855 41.352 71.0895 41.904 72.2895 43.008C73.7615 44.368 74.4735 46.36 74.4255 48.984H65.6895C65.9775 50.504 66.7775 51.264 68.0895 51.264C68.8895 51.264 69.4575 50.96 69.7935 50.352H74.1855C73.9135 51.504 73.1375 52.488 71.8575 53.304C70.7855 53.992 69.4815 54.336 67.9455 54.336ZM67.8735 44.4C66.6735 44.4 65.9455 45.128 65.6895 46.584H69.9135C69.8175 45.896 69.5855 45.36 69.2175 44.976C68.8655 44.592 68.4175 44.4 67.8735 44.4Z" fill="#272727"/>
<path d="M156.938 19V8.99H161.11C162.155 8.99 162.949 9.312 163.49 9.956C163.938 10.4787 164.162 11.1133 164.162 11.86C164.162 12.7933 163.891 13.5167 163.35 14.03C162.809 14.5433 162.001 14.8 160.928 14.8H158.198V19H156.938ZM158.198 10.082V13.778H160.83C161.521 13.778 162.039 13.6147 162.384 13.288C162.739 12.9613 162.916 12.504 162.916 11.916C162.916 11.3187 162.739 10.866 162.384 10.558C162.039 10.2407 161.544 10.082 160.9 10.082H158.198ZM171.468 18.104C170.834 18.832 169.989 19.196 168.934 19.196C167.88 19.196 167.03 18.832 166.386 18.104C165.752 17.376 165.434 16.4707 165.434 15.388C165.434 14.3053 165.752 13.4 166.386 12.672C167.03 11.944 167.88 11.58 168.934 11.58C169.989 11.58 170.834 11.944 171.468 12.672C172.103 13.4 172.42 14.3053 172.42 15.388C172.42 16.4707 172.103 17.376 171.468 18.104ZM167.198 17.446C167.609 17.978 168.188 18.244 168.934 18.244C169.681 18.244 170.255 17.978 170.656 17.446C171.058 16.9047 171.258 16.2187 171.258 15.388C171.258 14.548 171.053 13.862 170.642 13.33C170.241 12.7887 169.672 12.518 168.934 12.518C168.188 12.518 167.609 12.7887 167.198 13.33C166.797 13.8713 166.596 14.5573 166.596 15.388C166.596 16.2187 166.797 16.9047 167.198 17.446ZM175.837 19L173.541 11.762H174.759L176.033 16.228L176.425 17.782H176.453C176.593 17.1473 176.714 16.6387 176.817 16.256L178.035 11.762H179.225L180.401 16.256L180.751 17.782H180.779C180.928 17.1473 181.063 16.6293 181.185 16.228L182.529 11.762H183.705L181.339 19H180.177L178.973 14.618L178.623 13.106H178.595C178.464 13.7127 178.343 14.2167 178.231 14.618L177.013 19H175.837ZM188.333 19.196C187.26 19.196 186.406 18.8367 185.771 18.118C185.146 17.39 184.833 16.48 184.833 15.388C184.833 14.3147 185.151 13.414 185.785 12.686C186.429 11.9487 187.255 11.58 188.263 11.58C189.327 11.58 190.149 11.9533 190.727 12.7C191.306 13.4373 191.595 14.422 191.595 15.654H185.995C186.042 16.4193 186.266 17.0447 186.667 17.53C187.078 18.006 187.633 18.244 188.333 18.244C189.416 18.244 190.083 17.7493 190.335 16.76H191.441C191.273 17.5347 190.919 18.1367 190.377 18.566C189.836 18.986 189.155 19.196 188.333 19.196ZM189.775 13.092C189.411 12.6813 188.907 12.476 188.263 12.476C187.619 12.476 187.106 12.6907 186.723 13.12C186.35 13.5493 186.117 14.1093 186.023 14.8H190.377C190.34 14.072 190.139 13.5027 189.775 13.092ZM194.678 11.762V12.966H194.706C194.939 12.5833 195.243 12.2753 195.616 12.042C195.989 11.7993 196.405 11.678 196.862 11.678C197.03 11.678 197.184 11.706 197.324 11.762V12.854H197.282C197.142 12.8073 196.974 12.784 196.778 12.784C196.199 12.784 195.705 12.9893 195.294 13.4C194.883 13.8013 194.678 14.3287 194.678 14.982V19H193.544V11.762H194.678ZM202.003 19.196C200.93 19.196 200.076 18.8367 199.441 18.118C198.816 17.39 198.503 16.48 198.503 15.388C198.503 14.3147 198.821 13.414 199.455 12.686C200.099 11.9487 200.925 11.58 201.933 11.58C202.997 11.58 203.819 11.9533 204.397 12.7C204.976 13.4373 205.265 14.422 205.265 15.654H199.665C199.712 16.4193 199.936 17.0447 200.337 17.53C200.748 18.006 201.303 18.244 202.003 18.244C203.086 18.244 203.753 17.7493 204.005 16.76H205.111C204.943 17.5347 204.589 18.1367 204.047 18.566C203.506 18.986 202.825 19.196 202.003 19.196ZM203.445 13.092C203.081 12.6813 202.577 12.476 201.933 12.476C201.289 12.476 200.776 12.6907 200.393 13.12C200.02 13.5493 199.787 14.1093 199.693 14.8H204.047C204.01 14.072 203.809 13.5027 203.445 13.092ZM210.014 19.21C209.025 19.21 208.241 18.8693 207.662 18.188C207.093 17.4973 206.808 16.5687 206.808 15.402C206.808 14.226 207.107 13.2973 207.704 12.616C208.302 11.9347 209.062 11.594 209.986 11.594C210.966 11.594 211.722 11.9907 212.254 12.784H212.282V8.99H213.416V19H212.282V18.118H212.254C211.685 18.846 210.938 19.21 210.014 19.21ZM210.056 18.258C210.831 18.258 211.405 18.0013 211.778 17.488C212.161 16.9747 212.352 16.284 212.352 15.416C212.352 14.5573 212.147 13.8667 211.736 13.344C211.335 12.8213 210.77 12.56 210.042 12.56C209.38 12.56 208.866 12.826 208.502 13.358C208.148 13.8807 207.97 14.5667 207.97 15.416C207.97 16.2653 208.148 16.9513 208.502 17.474C208.866 17.9967 209.384 18.258 210.056 18.258ZM222.305 19.21C221.344 19.21 220.583 18.8227 220.023 18.048H219.995V19H218.861V8.99H219.995V12.798H220.023C220.611 11.9953 221.386 11.594 222.347 11.594C223.28 11.594 224.027 11.9347 224.587 12.616C225.147 13.288 225.427 14.2167 225.427 15.402C225.427 16.5687 225.147 17.4973 224.587 18.188C224.036 18.8693 223.276 19.21 222.305 19.21ZM222.221 18.258C222.893 18.258 223.402 18.0013 223.747 17.488C224.092 16.9653 224.265 16.2747 224.265 15.416C224.265 14.5667 224.092 13.8807 223.747 13.358C223.402 12.826 222.898 12.56 222.235 12.56C221.479 12.56 220.905 12.8307 220.513 13.372C220.121 13.904 219.925 14.5853 219.925 15.416C219.925 16.2653 220.121 16.9513 220.513 17.474C220.905 17.9967 221.474 18.258 222.221 18.258ZM228.186 21.394C227.756 21.394 227.416 21.3427 227.164 21.24V20.232H227.22C227.406 20.3347 227.663 20.386 227.99 20.386C228.242 20.386 228.452 20.3207 228.62 20.19C228.788 20.0687 228.937 19.84 229.068 19.504L229.348 18.79L226.52 11.762H227.752L229.46 16.27L229.95 17.684H229.978C230.146 17.1427 230.304 16.6713 230.454 16.27L232.106 11.762H233.31L230.216 19.588C229.936 20.2973 229.646 20.7733 229.348 21.016C229.049 21.268 228.662 21.394 228.186 21.394Z" fill="#676767"/>
<path d="M169.492 28.0671C166.877 28.3109 164.156 29.3928 161.929 31.0614C160.545 32.09 158.964 33.8652 158.121 35.3128C156.676 37.7966 156 40.2575 156 43.0689C156 45.4308 156.456 47.4804 157.444 49.5375C159.246 53.2708 162.286 55.9755 166.231 57.3393C167.599 57.8193 169.621 58.1546 171.05 58.1546C172.449 58.147 174.448 57.8041 175.77 57.347C178.081 56.5546 180.034 55.3203 181.691 53.6137C183.022 52.2422 183.744 51.2289 184.511 49.6594C187.833 42.8251 185.537 34.5585 179.175 30.4214C176.333 28.5776 172.92 27.7471 169.492 28.0671ZM173.444 29.9262C174.873 30.1852 176.834 30.9624 178.081 31.7547C180.673 33.4081 182.581 35.8004 183.592 38.688C185.454 43.9832 183.744 49.9413 179.343 53.4765C176.903 55.4346 174.151 56.4022 171.012 56.4022C168.048 56.4022 165.38 55.526 163.016 53.766C162.195 53.1489 160.773 51.7013 160.158 50.8403C159.086 49.3318 158.181 47.1604 157.87 45.3547C157.003 40.3566 159.116 35.1833 163.213 32.2423C165.129 30.8709 166.991 30.1547 169.568 29.7814C170.107 29.7052 172.791 29.8043 173.444 29.9262Z" fill="#4B4B4B"/>
<path d="M165.786 33.2718C165.346 33.4318 164.92 33.7441 164.669 34.0946C164.205 34.7346 164.205 34.7118 164.228 40.106L164.251 45.0126L164.426 45.3936C164.639 45.8507 164.966 46.2088 165.429 46.4831L165.771 46.6888L170.856 46.7117C176.565 46.7345 176.375 46.7498 177.013 46.186C177.203 46.0184 177.446 45.6907 177.568 45.4469L177.781 45.0126V39.946V34.8794L177.568 34.4451C177.34 33.9803 177.006 33.6451 176.504 33.3784L176.185 33.2032L171.13 33.188C167.01 33.1727 166.022 33.188 165.786 33.2718ZM175.896 35.0241L176.109 35.207L176.131 39.7327C176.147 42.2165 176.131 44.365 176.109 44.5022C176.086 44.6317 175.987 44.8146 175.903 44.8984C175.744 45.0507 175.63 45.0507 171.001 45.0507C166.41 45.0507 166.258 45.0431 166.121 44.906C166.037 44.8222 165.946 44.6393 165.923 44.5022C165.9 44.365 165.885 42.2165 165.9 39.7327L165.923 35.207L166.136 35.0241L166.349 34.8413H171.016H175.683L175.896 35.0241Z" fill="#4B4B4B"/>
<path d="M160.806 45.2933C160.829 48.5085 160.829 48.5161 161.011 48.859C161.239 49.3009 161.657 49.7428 162.045 49.9485C162.334 50.1085 162.455 50.1161 165.222 50.1542L168.103 50.1923L168.285 50.4057C168.46 50.6114 168.468 50.6647 168.468 51.7999V52.9733H169.312H170.155L170.125 51.579C170.102 50.3599 170.079 50.1466 169.942 49.8419C169.707 49.339 169.372 48.9961 168.871 48.7371L168.43 48.5161L165.602 48.4781C163.018 48.44 162.759 48.4247 162.638 48.3028C162.509 48.1809 162.501 47.9295 162.478 45.1257L162.455 42.0781H161.619H160.783L160.806 45.2933Z" fill="#4B4B4B"/>
<path d="M179.493 45.1105V48.1504L179.318 48.3104C179.151 48.4704 179.083 48.4704 176.377 48.4933L173.602 48.5161L173.169 48.7295C172.705 48.9581 172.371 49.2933 172.105 49.7961C171.945 50.0857 171.93 50.238 171.907 51.5409L171.877 52.9733H172.721H173.564V51.7999C173.564 50.6647 173.572 50.6114 173.747 50.4057L173.929 50.1923L176.772 50.1542C179.539 50.1161 179.615 50.1085 179.964 49.9409C180.39 49.7276 180.816 49.2704 181.044 48.7904C181.196 48.4552 181.203 48.3257 181.226 45.2552L181.249 42.0781H180.375H179.493V45.1105Z" fill="#4B4B4B"/>
<path d="M195.44 36.4867C193.203 36.9966 191.491 38.6068 190.965 40.682C190.745 41.5497 190.728 42.963 190.921 43.7323C191.86 47.5072 195.923 49.2604 199.881 47.6056C200.18 47.4804 200.627 47.2388 200.873 47.0778L201.321 46.7737V44.4748V42.1669H200.311H199.302V43.9917V45.8166L198.89 45.9955C197.038 46.8005 194.721 46.2549 193.65 44.7789C193.08 43.9739 192.948 43.5177 192.939 42.2564C192.939 41.183 192.948 41.1114 193.22 40.5389C193.905 39.054 195.247 38.2311 196.976 38.2311C197.362 38.2311 197.845 38.2758 198.047 38.3205C198.591 38.4457 199.32 38.8214 199.732 39.1882L200.092 39.5013L200.425 39.2329C200.601 39.0808 200.908 38.7946 201.101 38.5889L201.452 38.2132L201.031 37.8285C200.478 37.3097 199.855 36.9608 198.995 36.6657C198.407 36.4599 198.1 36.4152 197.152 36.3884C196.362 36.3615 195.835 36.3973 195.44 36.4867Z" fill="#4B4B4B"/>
<path d="M225.17 41.3164C225.197 46.2441 225.197 46.2623 225.405 46.6813C225.666 47.2187 226.143 47.7014 226.674 47.9656C227.08 48.166 227.17 48.1751 230.268 48.2024L233.447 48.2297L233.42 47.246L233.393 46.2623L230.412 46.235C227.512 46.2168 227.422 46.2076 227.26 46.0255C227.098 45.8433 227.089 45.5974 227.062 41.1069L227.035 36.3796H226.089H225.152L225.17 41.3164Z" fill="#4B4B4B"/>
<path d="M206.961 39.3933C205.766 39.5528 204.537 40.3238 203.9 41.3162C203.077 42.61 203.006 44.5506 203.723 45.9507C203.971 46.4381 204.776 47.2799 205.324 47.5989C206.094 48.0685 207.102 48.2812 208.27 48.2192C209.641 48.1483 210.596 47.8027 211.233 47.1381L211.525 46.8368L211.012 46.2608C210.473 45.6494 210.358 45.5874 210.163 45.8266C209.96 46.0748 209.04 46.4558 208.5 46.5178C207.943 46.5798 207.005 46.4469 206.607 46.2431C206.014 45.933 205.466 45.2772 205.271 44.6304L205.209 44.4354H208.659H212.118V43.8771C212.109 42.5657 211.667 41.4048 210.835 40.5719C209.871 39.5971 208.526 39.1895 206.961 39.3933ZM208.889 41.2187C209.508 41.5466 209.986 42.158 210.128 42.8138L210.19 43.1062H207.695H205.2L205.262 42.8581C205.448 42.0783 206.05 41.3783 206.757 41.1213C207.279 40.9263 208.429 40.9795 208.889 41.2187Z" fill="#4B4B4B"/>
<path d="M218.293 39.3962C217.514 39.5122 216.799 39.8067 216.332 40.2082L215.91 40.574V39.9851V39.3873L214.93 39.4141L213.94 39.4408L213.913 43.8308L213.895 48.2297H214.939H215.984L216.02 45.5708C216.048 43.1081 216.057 42.8939 216.24 42.5192C216.652 41.6537 217.285 41.2254 218.274 41.1272C219.319 41.0202 220.079 41.4038 220.473 42.2426C220.711 42.7422 220.721 42.7512 220.748 45.4815L220.785 48.2297H221.783H222.782V45.3298C222.782 42.2783 222.736 41.7964 222.361 41.0915C221.701 39.8245 220.033 39.1375 218.293 39.3962Z" fill="#4B4B4B"/>
<path d="M237.587 39.3787C236.614 39.4854 235.571 39.8501 235.006 40.286C234.858 40.3928 234.867 40.4372 235.128 40.9354C235.275 41.2289 235.458 41.5581 235.527 41.6737L235.649 41.8783L235.866 41.7004C236.205 41.4246 236.936 41.1845 237.718 41.0688C238.9 40.9087 239.795 41.2378 240.16 41.9584C240.256 42.1541 240.334 42.4654 240.334 42.67V43.0258H239.274C237.961 43.0258 236.805 43.1504 236.249 43.3372C235.736 43.5151 235.093 44.0755 234.832 44.5737C234.571 45.0718 234.563 46.1926 234.815 46.7175C235.075 47.269 235.649 47.776 236.266 48.0162C236.736 48.1941 236.97 48.2297 237.857 48.2297C238.813 48.2297 238.943 48.2119 239.413 47.9806C239.691 47.8472 240.056 47.5981 240.213 47.4202L240.508 47.1089V47.6426V48.1852H241.421H242.333V45.223C242.333 43.6041 242.29 42.1007 242.246 41.8872C241.968 40.6596 241.151 39.8235 239.943 39.521C239.248 39.352 238.344 39.2986 237.587 39.3787ZM240.334 44.9829C240.334 45.8101 240.056 46.2282 239.248 46.5929C238.378 46.9932 237.101 46.7886 236.727 46.1926C236.527 45.8813 236.536 45.2853 236.744 44.9918C237.083 44.5203 237.379 44.4491 238.926 44.4491H240.334V44.9829Z" fill="#4B4B4B"/>
<path d="M256.849 39.3843C255.302 39.5789 254.082 40.4458 253.445 41.7903C252.774 43.2055 252.871 44.9481 253.675 46.213C254.506 47.5044 255.956 48.2297 257.733 48.2297C259.121 48.2297 260.332 47.814 261.004 47.124L261.295 46.8233L260.791 46.2395C260.509 45.9211 260.252 45.6646 260.217 45.6646C260.181 45.6646 259.996 45.7796 259.801 45.9122C259.076 46.443 258.157 46.6376 257.202 46.4606C256.531 46.3368 256.248 46.2041 255.779 45.7796C255.417 45.4523 255.205 45.1161 255.072 44.6739L255.001 44.4262H258.449H261.888V43.8247C261.888 42.5333 261.437 41.4011 260.615 40.5696C259.669 39.632 258.299 39.1986 256.849 39.3843ZM258.634 41.1888C259.094 41.4099 259.483 41.8257 259.731 42.3475C260.111 43.1525 260.279 43.0994 257.468 43.0994H254.992L255.045 42.8517C255.222 42.0733 255.815 41.3746 256.531 41.118C257.026 40.9323 258.201 40.9765 258.634 41.1888Z" fill="#4B4B4B"/>
<path d="M268.268 39.4313C267.586 39.5203 266.888 39.8762 266.447 40.3388L266.089 40.7035V40.063V39.4136L265.199 39.4402L264.301 39.4669L264.276 43.8439L264.26 48.2297H265.208H266.156L266.189 45.6676C266.214 43.2211 266.222 43.0966 266.405 42.6696C266.796 41.7711 267.37 41.3707 268.343 41.3085L269 41.264V40.3032C269 39.5826 268.975 39.3335 268.9 39.3424C268.842 39.3513 268.559 39.3869 268.268 39.4313Z" fill="#4B4B4B"/>
<path d="M243.164 39.4099C243.164 39.4623 244.039 41.4096 245.107 43.7411C246.534 46.8672 247.022 48.0286 246.986 48.177C246.949 48.2818 246.792 48.5612 246.636 48.797C246.12 49.5741 245.181 49.7663 244.232 49.2947L243.716 49.0328L243.477 49.4432C242.823 50.5347 242.86 50.4299 243.044 50.5609C243.983 51.2333 245.825 51.3992 246.875 50.9102C247.465 50.6395 248.118 50.0108 248.45 49.3995C248.708 48.9018 252.926 39.7156 252.99 39.4798C253.036 39.3401 252.962 39.3313 252.041 39.3488L251.047 39.375L249.619 42.536C248.827 44.2737 248.164 45.6796 248.146 45.6534C248.118 45.6272 247.465 44.2039 246.7 42.4924L245.3 39.375L244.232 39.3488C243.569 39.3313 243.164 39.3575 243.164 39.4099Z" fill="#4B4B4B"/>
<line x1="133.25" y1="8" x2="133.25" y2="54" stroke="#747474" stroke-width="0.5"/>
</svg>
